<svg id="svg" version="1.1" xmlns="http://www.w3.org/2000/svg" xmlns:xlink="http://www.w3.org/1999/xlink" width="400" height="99.6397894153505" viewBox="0, 0, 400,99.6397894153505"><g id="svgg"><path id="path0" d="M98.333 39.333 L 98.333 68.167 102.243 68.167 L 106.152 68.167 106.207 54.542 C 106.268 39.316,106.212 40.051,107.499 37.502 C 110.161 32.228,118.810 30.531,123.149 34.432 C 125.299 36.366,125.331 36.651,125.332 54.125 L 125.333 68.167 129.256 68.167 L 133.179 68.167 133.122 52.375 C 133.060 35.250,133.078 35.605,132.129 33.167 C 128.864 24.781,115.869 22.628,107.667 29.113 C 106.934 29.693,106.297 30.167,106.251 30.167 C 106.204 30.167,106.167 25.742,106.167 20.333 L 106.167 10.500 102.250 10.500 L 98.333 10.500 98.333 39.333 M207.869 25.670 C 204.762 26.484,202.387 28.397,199.793 32.175 L 199.170 33.083 199.168 29.792 L 199.167 26.500 195.417 26.500 L 191.667 26.500 191.667 47.333 L 191.667 68.167 195.576 68.167 L 199.486 68.167 199.543 55.875 C 199.599 43.918,199.611 43.549,199.957 42.309 C 201.800 35.726,206.942 32.202,213.208 33.229 L 214.500 33.441 214.500 29.905 L 214.500 26.370 213.814 26.095 C 211.819 25.297,209.835 25.155,207.869 25.670 M236.417 25.435 C 231.315 26.202,228.119 27.735,224.946 30.936 C 217.077 38.875,217.019 55.167,224.829 63.389 C 232.635 71.607,246.961 71.180,253.512 62.534 C 254.805 60.828,256.667 56.770,256.667 55.658 C 256.667 55.563,255.174 55.500,252.929 55.500 L 249.191 55.500 248.782 56.394 C 246.806 60.710,243.848 62.580,239.000 62.578 C 232.992 62.576,229.112 59.458,227.574 53.395 C 227.162 51.773,226.820 49.402,226.976 49.246 C 227.020 49.203,233.877 49.167,242.215 49.167 L 257.374 49.167 257.259 46.875 C 256.670 35.074,251.656 27.710,242.921 25.814 C 241.464 25.498,237.526 25.269,236.417 25.435 M284.306 25.591 C 280.874 26.125,278.314 27.466,275.447 30.232 C 274.914 30.746,274.445 31.167,274.405 31.167 C 274.366 31.167,274.333 30.117,274.333 28.833 L 274.333 26.500 270.583 26.500 L 266.833 26.500 266.833 47.333 L 266.833 68.167 270.750 68.167 L 274.667 68.167 274.667 55.458 C 274.668 40.085,274.736 39.322,276.343 36.819 C 279.811 31.414,290.022 30.684,292.724 35.648 C 293.793 37.612,293.732 36.618,293.791 53.125 L 293.845 68.167 297.839 68.167 L 301.833 68.167 301.832 54.458 C 301.830 36.623,301.695 34.843,300.116 31.750 C 297.659 26.939,291.373 24.490,284.306 25.591 M328.917 25.577 C 317.997 27.096,311.594 35.073,311.586 47.167 C 311.578 58.775,317.297 66.761,327.033 68.741 C 339.320 71.239,349.274 64.851,350.593 53.622 L 350.706 52.660 347.001 52.705 L 343.295 52.750 342.981 54.000 C 341.500 59.880,338.127 62.576,332.250 62.576 C 322.988 62.577,317.371 53.407,319.917 42.441 C 321.824 34.232,329.360 29.849,336.667 32.699 C 339.584 33.838,342.667 37.695,342.667 40.208 C 342.667 40.478,342.953 40.500,346.417 40.500 C 350.705 40.500,350.327 40.688,349.923 38.750 C 347.939 29.244,339.700 24.078,328.917 25.577 M373.917 25.590 C 368.735 26.351,364.190 29.193,361.288 33.486 C 356.393 40.728,356.188 52.684,360.829 60.250 C 368.339 72.494,387.274 72.297,393.558 59.910 C 394.026 58.987,395.167 55.909,395.167 55.568 C 395.167 55.531,393.484 55.500,391.428 55.500 L 387.689 55.500 386.888 57.019 C 384.820 60.942,382.085 62.577,377.583 62.581 C 370.500 62.588,366.234 58.241,365.389 50.156 L 365.286 49.167 380.560 49.167 L 395.833 49.167 395.832 48.708 C 395.772 32.919,387.002 23.667,373.917 25.590 M145.051 42.542 C 145.122 59.723,145.091 59.080,145.966 61.540 C 149.102 70.350,163.078 72.139,170.839 64.724 C 171.544 64.051,172.168 63.500,172.227 63.500 C 172.285 63.500,172.333 64.550,172.333 65.833 L 172.333 68.167 176.083 68.167 L 179.833 68.167 179.833 47.333 L 179.833 26.500 175.923 26.500 L 172.013 26.500 171.960 40.208 C 171.912 52.700,171.881 54.004,171.615 54.905 C 170.195 59.698,166.611 62.170,161.087 62.165 C 156.651 62.161,154.533 60.885,153.305 57.478 L 152.923 56.417 152.871 41.458 L 152.820 26.500 148.902 26.500 L 144.985 26.500 145.051 42.542 M45.667 27.796 C 45.116 27.889,33.162 32.630,32.874 32.869 C 32.111 33.502,32.613 33.812,39.167 36.764 C 41.321 37.734,43.571 38.754,44.167 39.030 C 46.153 39.952,46.830 40.174,47.300 40.058 C 48.029 39.879,60.197 34.208,60.486 33.914 C 60.949 33.441,60.143 33.037,53.461 30.393 C 47.109 27.878,46.458 27.662,45.667 27.796 M241.583 31.948 C 245.892 33.014,248.476 36.669,249.072 42.542 L 249.170 43.500 238.085 43.500 L 227.000 43.500 227.000 43.011 C 227.000 35.753,234.369 30.163,241.583 31.948 M379.750 31.861 C 383.969 32.747,386.988 36.786,387.435 42.141 L 387.548 43.500 376.429 43.500 C 365.920 43.500,365.315 43.484,365.393 43.208 C 365.439 43.048,365.525 42.504,365.585 42.000 C 366.428 34.927,372.762 30.394,379.750 31.861 M31.552 35.457 C 31.055 35.791,31.000 36.637,31.000 44.019 C 31.000 53.188,30.770 52.349,33.750 54.033 C 45.228 60.516,44.810 60.328,45.277 59.212 C 45.710 58.175,45.834 42.974,45.416 42.165 C 44.976 41.314,44.238 40.884,39.333 38.624 C 38.829 38.392,37.592 37.811,36.583 37.333 C 32.363 35.335,31.958 35.184,31.552 35.457 M60.250 35.911 C 57.722 37.116,54.191 38.791,52.583 39.548 C 48.834 41.315,48.095 41.732,47.804 42.250 C 47.460 42.861,47.033 59.294,47.340 60.101 C 47.619 60.835,48.393 60.568,52.333 58.382 C 54.304 57.289,56.894 55.860,58.088 55.207 C 61.500 53.341,61.308 53.684,61.500 49.120 C 62.134 34.032,62.223 34.970,60.250 35.911 " stroke="none" fill="#242424" fill-rule="evenodd"></path><path id="path1" d="M44.283 6.939 C 44.225 6.997,41.982 7.779,39.297 8.676 C 35.355 9.994,34.417 10.364,34.417 10.602 C 34.417 10.974,43.823 14.155,44.943 14.162 C 45.565 14.166,46.476 13.871,50.583 12.333 C 51.042 12.162,52.279 11.707,53.333 11.322 C 56.628 10.120,56.932 10.315,48.100 7.975 C 47.100 7.710,45.947 7.345,45.537 7.163 C 44.754 6.817,44.458 6.764,44.283 6.939 M25.542 12.944 C 20.241 14.725,19.769 14.962,20.542 15.444 C 21.479 16.028,30.280 19.332,30.881 19.325 C 32.101 19.311,42.738 15.504,42.801 15.059 C 42.866 14.601,32.829 11.157,31.500 11.180 C 31.017 11.188,28.895 11.816,25.542 12.944 M57.167 11.654 C 55.926 12.064,49.531 14.302,48.958 14.527 C 48.397 14.748,48.351 15.280,48.875 15.494 C 52.442 16.949,60.041 19.566,60.667 19.554 C 61.477 19.538,70.777 15.861,71.026 15.458 C 71.264 15.072,70.763 14.858,66.417 13.492 C 58.608 11.036,58.876 11.090,57.167 11.654 M44.333 15.938 C 44.196 15.992,42.733 16.524,41.083 17.120 C 39.433 17.716,37.483 18.428,36.750 18.700 C 36.017 18.973,35.221 19.256,34.982 19.330 C 33.047 19.923,33.313 20.248,36.958 21.749 C 38.677 22.457,41.235 23.516,42.642 24.101 C 45.644 25.352,46.411 25.441,48.083 24.738 C 48.633 24.507,50.171 23.876,51.500 23.336 C 57.567 20.872,57.917 20.708,57.917 20.332 C 57.917 19.430,45.593 15.443,44.333 15.938 M14.250 16.647 C 13.700 16.806,13.100 17.018,12.917 17.118 C 12.733 17.218,10.746 17.913,8.500 18.663 C 3.086 20.470,2.833 20.660,4.750 21.472 C 5.300 21.705,7.438 22.636,9.500 23.539 C 14.630 25.787,13.556 25.829,21.110 23.088 C 29.127 20.178,28.898 20.406,25.115 19.114 C 23.906 18.702,22.120 18.024,21.147 17.607 C 18.150 16.326,16.264 16.063,14.250 16.647 M72.833 16.671 C 72.421 16.841,71.371 17.241,70.500 17.558 C 63.763 20.015,63.967 19.924,64.034 20.470 C 64.088 20.913,63.860 20.826,73.229 24.017 C 78.317 25.750,76.907 25.985,86.375 21.823 C 88.832 20.743,88.883 20.791,83.333 19.001 C 80.996 18.248,78.184 17.339,77.086 16.982 C 74.862 16.260,73.982 16.195,72.833 16.671 M28.833 21.481 C 28.329 21.654,27.317 22.021,26.583 22.295 C 25.850 22.569,23.563 23.409,21.500 24.161 C 15.604 26.311,15.374 25.855,24.417 29.936 C 30.135 32.516,28.312 32.804,41.417 27.249 C 43.925 26.186,43.884 26.110,39.917 24.459 C 38.175 23.734,35.775 22.724,34.583 22.214 C 31.997 21.108,30.479 20.914,28.833 21.481 M60.000 21.652 C 59.587 21.819,58.125 22.422,56.750 22.992 C 55.375 23.563,53.237 24.442,52.000 24.947 C 48.219 26.488,48.029 26.278,56.079 29.472 C 64.111 32.660,62.577 32.654,69.618 29.525 C 76.638 26.406,76.501 26.606,72.583 25.197 C 60.844 20.975,61.334 21.113,60.000 21.652 M2.415 22.395 C 2.132 22.827,2.453 27.046,3.402 35.372 C 3.720 38.166,3.223 37.671,9.333 41.265 C 14.045 44.037,14.612 44.093,14.421 41.770 C 14.374 41.209,14.261 39.850,14.169 38.750 C 14.077 37.650,13.886 35.175,13.744 33.250 C 13.227 26.239,13.402 26.632,10.176 25.226 C 9.392 24.884,7.550 24.048,6.083 23.368 C 2.818 21.855,2.777 21.844,2.415 22.395 M86.333 23.421 C 85.004 24.019,82.942 24.929,81.750 25.445 C 78.174 26.991,78.466 26.313,77.827 34.550 C 77.263 41.824,77.240 43.713,77.712 43.803 C 78.149 43.886,86.647 39.268,87.264 38.612 C 87.759 38.086,87.784 37.984,87.982 35.741 C 88.095 34.463,88.252 32.854,88.331 32.167 C 88.410 31.479,88.561 30.054,88.666 29.000 C 88.771 27.946,88.927 26.534,89.012 25.863 C 89.240 24.067,89.213 22.333,88.958 22.334 C 88.844 22.334,87.662 22.823,86.333 23.421 M15.809 28.570 C 15.552 29.134,16.594 43.876,16.937 44.540 C 17.234 45.113,17.126 45.048,21.917 47.544 C 29.483 51.487,28.997 51.362,29.004 49.369 C 29.010 47.501,28.650 35.799,28.564 35.054 C 28.377 33.439,28.215 33.328,21.639 30.339 C 16.615 28.055,16.113 27.902,15.809 28.570 M74.250 29.174 C 71.474 30.513,68.916 31.723,67.417 32.407 C 64.457 33.757,64.246 33.978,64.106 35.879 C 64.000 37.319,63.678 44.626,63.546 48.567 L 63.452 51.385 64.018 51.289 C 64.502 51.206,68.205 49.270,73.492 46.335 C 75.377 45.288,75.396 45.243,75.733 41.083 C 75.881 39.250,76.160 35.895,76.353 33.628 C 76.818 28.168,76.729 27.979,74.250 29.174 M4.245 41.083 C 4.202 41.221,4.138 41.429,4.103 41.546 C 4.036 41.769,4.207 44.603,4.483 47.833 C 4.573 48.887,4.732 50.800,4.836 52.083 C 5.149 55.940,4.342 55.067,12.212 60.073 C 15.428 62.119,15.326 62.268,14.944 56.103 C 14.796 53.709,14.627 50.700,14.569 49.417 C 14.428 46.304,14.762 46.694,9.536 43.542 C 5.185 40.917,4.409 40.556,4.245 41.083 M83.487 42.856 C 81.981 43.684,80.150 44.663,79.417 45.032 C 76.621 46.439,76.578 46.519,76.149 51.161 C 75.975 53.043,75.756 55.371,75.664 56.333 C 75.571 57.296,75.448 58.923,75.390 59.949 L 75.285 61.815 75.719 61.924 C 76.079 62.014,76.663 61.712,79.118 60.164 C 80.749 59.136,82.458 58.065,82.917 57.785 C 84.790 56.639,85.242 55.884,85.498 53.478 C 85.589 52.619,85.739 51.279,85.832 50.500 C 85.925 49.721,86.075 48.446,86.167 47.667 C 86.401 45.669,86.629 43.742,86.762 42.642 C 86.952 41.060,86.727 41.075,83.487 42.856 M16.847 47.988 C 16.563 48.168,16.568 48.751,16.921 56.739 C 17.134 61.554,17.216 62.470,17.468 62.906 C 17.881 63.617,27.335 69.317,28.119 69.327 C 28.990 69.338,29.000 69.258,29.000 62.014 C 29.000 54.712,28.957 54.344,28.023 53.687 C 27.682 53.447,20.016 49.211,17.833 48.056 C 17.344 47.797,17.168 47.785,16.847 47.988 M70.909 50.184 C 69.355 51.110,67.014 52.501,65.706 53.276 C 62.573 55.133,62.872 54.388,62.494 61.278 C 61.967 70.894,61.987 71.103,63.372 70.278 C 64.625 69.531,71.560 65.059,72.235 64.563 C 73.505 63.629,73.487 63.692,73.929 58.566 C 74.150 56.009,74.428 52.812,74.549 51.462 C 74.872 47.827,74.867 47.825,70.909 50.184 M31.383 56.089 C 30.990 56.377,31.022 70.164,31.417 71.111 C 31.679 71.738,31.893 71.883,37.750 75.417 C 40.133 76.856,42.476 78.288,42.956 78.600 C 45.011 79.935,44.982 80.029,45.139 71.396 C 45.303 62.354,45.472 63.050,42.750 61.584 C 42.108 61.239,41.208 60.750,40.750 60.498 C 33.818 56.689,31.836 55.756,31.383 56.089 M59.723 56.675 C 59.431 56.786,55.512 58.906,49.417 62.251 C 47.824 63.125,47.538 63.339,47.360 63.793 C 46.895 64.981,46.643 79.301,47.081 79.665 C 47.493 80.006,47.891 79.802,53.253 76.494 C 60.541 71.997,59.962 72.616,60.175 69.102 C 60.896 57.180,60.862 56.245,59.723 56.675 M5.488 58.856 C 5.286 59.232,5.318 59.882,5.771 64.750 C 5.908 66.217,6.083 68.143,6.161 69.031 C 6.369 71.414,5.755 70.789,13.413 76.412 C 16.621 78.768,16.630 78.759,16.262 73.951 C 16.121 72.099,15.921 69.421,15.819 68.000 C 15.606 65.046,15.356 64.290,14.369 63.612 C 12.461 62.301,6.214 58.500,5.968 58.500 C 5.809 58.500,5.593 58.660,5.488 58.856 M81.417 60.607 C 79.767 61.668,77.742 62.936,76.917 63.424 C 74.859 64.640,75.054 64.008,74.497 71.250 C 74.399 72.533,74.241 74.427,74.148 75.459 C 73.871 78.516,74.110 78.695,76.376 77.119 C 77.223 76.530,79.066 75.276,80.471 74.334 C 83.870 72.053,83.945 71.923,84.333 67.667 C 84.438 66.521,84.670 64.131,84.850 62.357 C 85.306 57.863,85.516 57.970,81.417 60.607 M17.755 66.102 C 17.531 66.326,17.492 66.575,17.567 67.317 C 17.619 67.830,17.783 70.650,17.931 73.583 C 18.160 78.114,18.244 78.979,18.493 79.333 C 18.823 79.803,28.772 86.833,29.106 86.833 C 29.618 86.833,29.666 86.176,29.573 80.387 C 29.444 72.308,30.019 73.351,23.417 69.219 C 20.942 67.671,18.719 66.272,18.477 66.112 C 18.064 65.837,18.021 65.837,17.755 66.102 M67.500 69.663 C 63.514 72.268,62.357 73.103,62.139 73.534 C 61.831 74.141,60.959 86.106,61.176 86.750 C 61.237 86.933,61.409 87.107,61.558 87.137 C 61.945 87.213,71.522 80.456,71.876 79.857 C 72.274 79.184,73.454 66.929,73.156 66.570 C 72.834 66.183,72.784 66.210,67.500 69.663 M31.854 75.125 C 31.506 75.415,31.505 75.453,31.613 81.991 L 31.721 88.564 32.236 89.100 C 32.519 89.395,34.625 90.817,36.917 92.260 C 39.208 93.703,41.646 95.240,42.333 95.674 C 45.021 97.371,44.891 97.650,45.026 89.889 C 45.160 82.131,45.182 82.228,43.000 80.930 C 39.080 78.599,32.520 74.833,32.378 74.833 C 32.282 74.833,32.046 74.965,31.854 75.125 M55.819 77.037 C 54.039 78.248,51.533 79.955,50.250 80.828 C 47.087 82.981,47.355 82.170,47.222 90.016 C 47.104 97.040,47.104 97.039,48.041 96.683 C 48.819 96.387,58.801 89.490,59.091 89.048 C 59.414 88.555,59.523 87.208,59.837 79.859 C 60.096 73.766,60.355 73.948,55.819 77.037 " stroke="none" fill="#05acec" fill-rule="evenodd"></path><path id="path2" d="M0.000 49.750 L 0.000 99.500 200.000 99.500 L 400.000 99.500 400.000 49.750 L 400.000 0.000 200.000 0.000 L 0.000 0.000 0.000 49.750 M45.522 7.095 C 45.800 7.239,46.978 7.609,48.139 7.919 C 54.983 9.742,55.697 9.968,55.634 10.296 C 55.555 10.705,45.634 14.352,44.827 14.269 C 43.901 14.173,34.305 10.953,34.210 10.707 C 34.079 10.365,34.032 10.385,39.184 8.650 C 41.856 7.750,44.083 6.973,44.132 6.923 C 44.307 6.748,45.023 6.837,45.522 7.095 M106.167 20.250 C 106.167 25.613,106.204 30.000,106.249 30.000 C 106.295 30.000,107.007 29.487,107.832 28.861 C 116.414 22.345,129.497 24.894,132.389 33.644 C 133.202 36.103,133.207 36.209,133.281 52.625 L 133.351 68.167 129.259 68.167 L 125.167 68.167 125.167 53.678 C 125.167 36.428,125.192 36.687,123.278 34.694 C 120.166 31.456,112.644 31.815,109.145 35.369 C 106.357 38.201,106.177 39.456,106.171 56.125 L 106.167 68.167 102.167 68.167 L 98.167 68.167 98.167 39.333 L 98.167 10.500 102.167 10.500 L 106.167 10.500 106.167 20.250 M37.500 12.853 C 40.296 13.785,42.677 14.621,42.792 14.711 C 43.361 15.157,42.927 15.419,39.828 16.503 C 30.379 19.807,31.150 19.577,30.254 19.352 C 29.011 19.039,20.426 15.525,20.253 15.258 C 19.957 14.804,20.484 14.571,25.667 12.866 C 28.462 11.946,30.863 11.152,31.000 11.102 C 31.503 10.919,32.518 11.192,37.500 12.853 M61.917 12.023 C 70.427 14.642,71.167 14.898,71.167 15.226 C 71.167 15.600,70.904 15.738,67.833 16.978 C 66.229 17.625,64.092 18.495,63.083 18.909 C 60.912 19.803,60.421 19.832,58.703 19.174 C 56.822 18.453,51.614 16.549,50.167 16.053 C 47.500 15.139,47.659 14.900,51.917 13.413 C 53.658 12.806,55.608 12.120,56.250 11.890 C 58.615 11.043,58.743 11.046,61.917 12.023 M52.364 17.885 C 55.521 19.025,58.033 20.021,58.086 20.155 C 58.280 20.651,57.367 21.079,48.926 24.445 C 46.039 25.597,46.105 25.602,42.000 23.904 C 40.304 23.203,37.831 22.186,36.504 21.645 C 33.417 20.387,32.970 19.914,34.429 19.447 C 34.697 19.361,37.021 18.520,39.593 17.578 C 46.054 15.211,44.876 15.183,52.364 17.885 M78.333 17.331 C 83.923 19.091,87.748 20.357,87.891 20.495 C 88.324 20.914,87.789 21.257,84.333 22.775 C 82.362 23.640,80.525 24.451,80.250 24.575 C 78.907 25.183,78.397 25.333,77.673 25.333 C 76.761 25.333,76.675 25.308,71.500 23.511 C 69.346 22.762,66.777 21.875,65.791 21.539 C 63.159 20.641,63.175 20.185,65.873 19.194 C 66.630 18.916,68.600 18.187,70.250 17.574 C 74.722 15.912,73.908 15.937,78.333 17.331 M18.507 16.585 C 19.042 16.724,20.103 17.108,20.865 17.438 C 21.627 17.769,23.488 18.472,25.000 19.002 C 27.483 19.871,27.750 20.001,27.750 20.349 C 27.750 20.762,27.969 20.661,23.833 22.158 C 22.871 22.507,20.508 23.373,18.583 24.083 C 13.840 25.832,14.840 25.947,7.750 22.836 C 6.467 22.273,5.117 21.692,4.750 21.546 C 2.603 20.691,2.887 20.465,8.492 18.565 C 10.742 17.802,13.108 16.990,13.750 16.760 C 15.137 16.263,16.999 16.195,18.507 16.585 M31.990 21.179 C 32.398 21.273,33.223 21.563,33.824 21.823 C 34.867 22.275,36.905 23.129,40.917 24.795 C 44.231 26.171,44.241 26.154,38.786 28.413 C 36.383 29.408,33.554 30.597,32.500 31.055 C 29.525 32.348,29.710 32.378,23.417 29.545 C 16.932 26.626,17.167 26.749,17.167 26.266 C 17.167 25.633,16.587 25.889,24.917 22.838 C 25.375 22.670,26.084 22.407,26.492 22.254 C 29.782 21.020,30.604 20.859,31.990 21.179 M62.922 21.686 C 65.275 22.519,68.670 23.727,70.875 24.516 C 72.181 24.983,73.604 25.489,74.036 25.641 C 75.405 26.121,75.795 26.633,75.125 27.071 C 74.334 27.589,64.103 32.040,63.525 32.118 C 62.779 32.218,62.539 32.133,55.619 29.358 C 52.614 28.153,50.095 27.167,50.020 27.167 C 49.761 27.167,49.304 26.523,49.360 26.237 C 49.416 25.951,49.773 25.782,53.417 24.312 C 54.333 23.942,55.308 23.534,55.583 23.405 C 59.635 21.502,61.303 21.112,62.922 21.686 M4.629 22.644 C 5.337 22.998,6.817 23.680,7.917 24.159 C 13.586 26.628,13.331 26.320,13.662 31.083 C 13.764 32.550,13.917 34.575,14.001 35.583 C 14.810 45.271,15.282 44.831,8.417 40.795 C 3.133 37.689,3.558 38.358,3.000 32.250 C 2.815 30.233,2.553 27.533,2.416 26.250 C 1.928 21.672,2.106 21.382,4.629 22.644 M89.124 24.292 C 89.057 25.872,88.455 32.288,87.904 37.304 C 87.833 37.947,87.683 38.324,87.361 38.671 C 86.984 39.077,79.193 43.412,78.077 43.836 C 77.039 44.230,76.992 43.300,77.666 35.750 C 77.748 34.833,77.900 32.846,78.004 31.333 C 78.329 26.597,77.888 27.113,83.932 24.416 C 89.722 21.833,89.229 21.844,89.124 24.292 M211.333 25.338 C 211.929 25.431,212.885 25.670,213.458 25.868 L 214.500 26.228 214.500 29.883 L 214.500 33.538 213.958 33.430 C 207.116 32.063,201.570 35.839,199.905 43.000 C 199.646 44.111,199.606 45.581,199.545 56.208 L 199.477 68.167 195.488 68.167 L 191.500 68.167 191.500 47.250 L 191.500 26.333 195.333 26.333 L 199.167 26.333 199.167 29.609 L 199.167 32.885 200.231 31.401 C 202.821 27.787,205.278 26.028,208.583 25.418 C 210.093 25.139,210.065 25.140,211.333 25.338 M240.167 25.339 C 250.969 26.293,256.833 33.878,257.398 47.625 L 257.469 49.333 242.219 49.333 L 226.969 49.333 227.077 50.208 C 228.008 57.735,231.378 61.698,237.536 62.506 C 242.388 63.142,246.319 61.073,248.498 56.736 L 249.202 55.333 253.021 55.333 L 256.840 55.333 256.738 55.792 C 255.616 60.875,251.983 65.472,247.416 67.587 C 242.177 70.014,235.011 69.886,229.817 67.272 C 222.457 63.567,218.215 54.887,219.013 45.167 C 219.986 33.321,226.430 26.389,237.500 25.279 C 237.821 25.246,238.121 25.209,238.167 25.195 C 238.213 25.181,239.112 25.246,240.167 25.339 M289.429 25.347 C 295.665 25.964,300.058 29.263,301.171 34.167 C 301.286 34.671,301.459 35.346,301.555 35.667 C 301.672 36.052,301.752 41.662,301.791 52.208 L 301.852 68.167 297.850 68.167 L 293.848 68.167 293.794 53.458 C 293.733 37.166,293.761 37.577,292.614 35.621 C 289.595 30.468,278.998 31.741,276.013 37.614 C 274.881 39.842,274.929 39.139,274.873 54.375 L 274.822 68.167 270.828 68.167 L 266.833 68.167 266.833 47.250 L 266.833 26.333 270.667 26.333 L 274.500 26.333 274.500 28.689 L 274.500 31.044 275.805 29.798 C 279.111 26.639,281.830 25.545,287.263 25.189 C 287.453 25.177,288.428 25.248,289.429 25.347 M334.263 25.337 C 342.552 26.114,348.069 30.549,349.808 37.833 C 350.036 38.791,350.333 40.303,350.333 40.508 C 350.333 40.604,348.813 40.667,346.503 40.667 L 342.673 40.667 342.575 40.208 C 340.345 29.753,325.707 29.062,321.104 39.195 C 316.995 48.242,320.767 59.902,328.500 62.059 C 335.733 64.077,341.460 60.683,343.014 53.458 L 343.220 52.500 347.032 52.500 L 350.845 52.500 350.738 53.375 C 349.735 61.625,344.743 67.180,336.750 68.940 C 335.069 69.311,329.309 69.368,327.750 69.029 C 317.224 66.745,311.438 59.051,311.434 47.333 C 311.429 34.661,318.428 26.410,330.083 25.348 C 332.254 25.151,332.270 25.151,334.263 25.337 M378.583 25.334 C 389.228 26.304,395.195 33.780,395.776 46.875 L 395.885 49.333 380.693 49.333 L 365.500 49.333 365.500 49.992 C 365.500 51.191,365.990 53.317,366.713 55.250 C 370.109 64.337,382.793 65.322,386.874 56.816 L 387.583 55.337 391.458 55.335 C 393.590 55.334,395.333 55.364,395.333 55.402 C 395.333 56.307,393.582 60.303,392.443 61.997 C 387.090 69.958,374.331 71.821,365.917 65.872 C 360.445 62.003,357.329 55.179,357.338 47.083 C 357.352 35.050,364.447 26.362,375.083 25.354 C 375.908 25.276,376.621 25.202,376.667 25.189 C 376.712 25.177,377.575 25.242,378.583 25.334 M152.877 41.042 C 152.948 57.089,152.926 56.712,153.921 58.676 C 156.497 63.759,166.673 63.198,170.216 57.777 C 171.836 55.298,171.833 55.325,171.833 39.736 L 171.833 26.327 175.875 26.372 L 179.917 26.417 179.959 47.292 L 180.001 68.167 176.084 68.167 L 172.167 68.167 172.167 65.896 L 172.167 63.626 171.013 64.715 C 163.494 71.807,150.390 70.763,146.373 62.750 C 144.938 59.888,144.941 59.924,144.875 42.125 L 144.816 26.333 148.814 26.333 L 152.812 26.333 152.877 41.042 M53.605 30.344 C 62.185 33.770,61.977 33.521,57.827 35.406 C 57.235 35.675,56.075 36.208,55.250 36.591 C 54.425 36.974,53.375 37.458,52.917 37.667 C 52.458 37.875,51.371 38.381,50.500 38.791 C 46.571 40.640,47.980 40.904,38.500 36.549 C 37.996 36.318,36.946 35.846,36.167 35.502 C 30.912 33.179,30.709 33.525,39.336 30.096 C 43.885 28.287,45.603 27.677,46.158 27.673 C 46.735 27.668,48.386 28.260,53.605 30.344 M20.554 29.768 C 27.125 32.750,27.753 33.080,28.185 33.780 C 28.607 34.462,29.355 48.616,29.042 49.983 C 28.753 51.245,29.106 51.371,20.918 47.097 C 16.362 44.719,16.699 45.246,16.333 39.917 C 16.238 38.542,16.087 36.442,15.996 35.250 C 15.713 31.542,15.614 29.067,15.729 28.608 C 15.925 27.826,16.668 28.005,20.554 29.768 M76.585 28.938 C 76.783 29.338,76.747 29.938,75.994 38.667 C 75.895 39.813,75.752 41.575,75.675 42.583 C 75.464 45.368,75.428 45.418,72.583 46.921 C 71.575 47.454,69.328 48.668,67.589 49.618 C 63.105 52.068,63.209 52.087,63.398 48.842 C 63.752 42.739,63.995 37.742,63.997 36.511 C 64.002 33.973,64.124 33.848,68.583 31.781 C 69.867 31.186,71.967 30.202,73.250 29.595 C 75.687 28.442,76.281 28.325,76.585 28.938 M237.083 31.771 C 236.900 31.807,236.338 31.917,235.833 32.016 C 231.489 32.865,227.679 37.409,227.217 42.292 L 227.118 43.333 238.082 43.333 L 249.046 43.333 248.935 42.208 C 248.232 35.067,243.136 30.579,237.083 31.771 M375.333 31.765 C 369.850 32.763,365.501 37.788,365.500 43.125 C 365.500 43.290,367.812 43.333,376.506 43.333 L 387.511 43.333 387.405 42.458 C 386.699 36.643,384.289 33.206,380.112 32.060 C 379.238 31.820,376.097 31.626,375.333 31.765 M33.195 35.649 C 33.592 35.822,34.648 36.309,35.542 36.732 C 37.346 37.585,39.487 38.588,42.250 39.875 C 46.059 41.649,45.760 40.773,45.703 49.993 C 45.632 61.526,45.895 61.012,41.375 58.446 C 40.023 57.679,37.604 56.317,36.000 55.419 C 30.327 52.243,30.951 53.680,30.989 43.877 C 31.024 34.552,30.988 34.686,33.195 35.649 M61.852 35.701 C 62.187 36.328,61.630 52.255,61.246 53.000 C 60.860 53.751,60.315 54.098,54.462 57.320 C 48.329 60.697,47.906 60.882,47.421 60.397 C 46.984 59.961,47.184 43.278,47.637 42.333 C 47.930 41.723,49.107 41.063,54.084 38.721 C 55.092 38.246,56.742 37.467,57.750 36.989 C 61.762 35.089,61.558 35.153,61.852 35.701 M9.417 43.403 C 15.069 46.831,14.482 45.930,14.767 51.604 C 15.358 63.335,15.730 62.364,11.639 59.781 C 6.885 56.779,5.424 55.765,5.214 55.323 C 4.711 54.260,3.865 41.601,4.259 41.037 C 4.640 40.493,4.545 40.450,9.417 43.403 M86.738 41.595 C 86.890 41.747,86.964 42.011,86.914 42.220 C 86.866 42.420,86.491 45.464,86.081 48.985 C 85.269 55.941,85.185 56.277,84.058 57.094 C 81.029 59.291,75.960 62.179,75.576 61.927 C 75.073 61.598,75.055 62.332,75.759 54.594 C 76.536 46.058,76.364 46.542,79.117 45.115 C 79.923 44.697,81.821 43.676,83.333 42.847 C 86.300 41.221,86.347 41.204,86.738 41.595 M22.494 50.519 C 27.848 53.441,28.376 53.777,28.750 54.500 C 29.147 55.268,29.122 68.855,28.723 69.253 C 28.259 69.717,27.724 69.472,22.880 66.570 C 16.597 62.806,17.082 63.423,16.929 59.000 C 16.874 57.396,16.755 54.372,16.664 52.281 C 16.427 46.814,15.961 46.955,22.494 50.519 M74.703 50.024 C 74.678 50.698,74.588 51.925,74.503 52.750 C 74.419 53.575,74.265 55.300,74.161 56.583 C 73.712 62.122,73.551 63.352,73.213 63.809 C 72.838 64.316,63.055 70.664,62.645 70.666 C 61.870 70.669,61.872 71.027,62.570 58.906 C 62.795 54.981,62.838 54.847,64.083 54.149 C 64.450 53.943,66.063 52.992,67.667 52.035 C 69.271 51.078,71.203 49.925,71.960 49.474 C 74.456 47.988,74.778 48.053,74.703 50.024 M33.397 56.522 C 35.572 57.629,43.352 61.825,44.125 62.308 C 45.412 63.111,45.389 62.936,45.249 71.048 C 45.080 80.840,45.528 80.247,40.583 77.220 C 38.658 76.042,35.973 74.409,34.615 73.591 C 33.258 72.774,31.937 71.866,31.681 71.574 L 31.215 71.043 31.107 67.480 C 30.733 55.179,30.735 55.167,33.397 56.522 M60.571 56.762 C 60.878 57.069,60.884 57.292,60.675 60.965 C 60.588 62.497,60.429 65.475,60.322 67.583 C 60.110 71.758,59.980 72.305,59.045 72.964 C 58.791 73.143,57.083 74.213,55.250 75.341 C 53.417 76.469,51.317 77.765,50.583 78.222 C 46.329 80.871,46.557 81.243,46.829 72.086 C 47.115 62.471,46.613 63.728,51.169 61.224 C 60.731 55.969,60.085 56.276,60.571 56.762 M10.510 61.090 C 15.958 64.499,15.663 64.069,15.989 69.083 C 16.084 70.550,16.253 73.011,16.365 74.553 C 16.632 78.242,16.356 78.686,14.615 77.372 C 14.139 77.013,12.936 76.126,11.941 75.401 C 7.278 72.006,6.748 71.579,6.476 71.000 C 6.234 70.486,5.387 62.532,5.280 59.775 C 5.209 57.935,5.645 58.045,10.510 61.090 M85.143 58.958 C 85.236 59.132,85.241 59.620,85.155 60.167 C 85.076 60.671,84.817 63.146,84.578 65.667 C 83.918 72.643,84.468 71.707,78.749 75.579 C 73.699 78.997,73.847 79.015,74.137 75.034 C 74.912 64.400,74.876 64.609,76.060 63.877 C 76.471 63.624,77.506 62.987,78.361 62.461 C 79.217 61.935,80.892 60.873,82.083 60.101 C 84.305 58.661,84.872 58.449,85.143 58.958 M19.315 66.558 C 19.921 66.957,21.954 68.241,23.833 69.412 C 25.712 70.582,27.525 71.715,27.862 71.930 C 28.198 72.145,28.685 72.598,28.945 72.939 L 29.417 73.557 29.565 79.756 C 29.725 86.395,29.698 86.833,29.139 86.833 C 28.736 86.833,18.563 79.763,18.325 79.317 C 18.179 79.046,18.105 77.976,17.654 69.615 C 17.425 65.371,17.447 65.330,19.315 66.558 M73.312 66.833 C 73.370 67.226,73.168 69.834,72.834 73.000 C 72.752 73.779,72.601 75.392,72.498 76.583 C 72.177 80.316,72.714 79.651,66.500 84.000 C 60.413 88.260,60.847 88.242,61.135 84.232 C 61.240 82.775,61.406 80.233,61.504 78.583 C 61.850 72.774,61.312 73.663,66.583 70.202 C 68.875 68.697,71.125 67.214,71.583 66.906 C 72.579 66.237,73.219 66.210,73.312 66.833 M34.683 76.003 C 36.979 77.371,40.283 79.290,41.861 80.172 C 43.719 81.210,44.394 81.729,44.788 82.421 L 45.165 83.083 45.063 89.500 C 44.950 96.612,44.922 96.793,43.988 96.606 C 43.562 96.521,33.765 90.433,32.380 89.394 C 31.583 88.795,31.529 88.339,31.470 81.643 C 31.401 73.775,31.285 73.978,34.683 76.003 M59.835 75.085 C 60.195 75.520,59.662 88.036,59.249 88.834 C 58.786 89.731,48.387 96.883,47.669 96.799 L 47.250 96.750 47.266 90.138 C 47.278 85.165,47.335 83.397,47.496 83.009 C 47.702 82.511,49.243 81.402,57.417 75.868 C 58.967 74.818,59.476 74.653,59.835 75.085 " stroke="none" fill="#fbfbfb" fill-rule="evenodd"></path><path id="path3" d="M44.708 14.282 C 44.869 14.323,45.131 14.323,45.292 14.282 C 45.452 14.240,45.321 14.205,45.000 14.205 C 44.679 14.205,44.548 14.240,44.708 14.282 M45.208 15.782 C 45.369 15.823,45.631 15.823,45.792 15.782 C 45.952 15.740,45.821 15.705,45.500 15.705 C 45.179 15.705,45.048 15.740,45.208 15.782 M33.838 19.744 C 33.726 19.879,33.674 20.085,33.721 20.203 C 33.776 20.341,33.812 20.316,33.820 20.133 C 33.827 19.977,33.965 19.773,34.125 19.680 C 34.285 19.587,34.332 19.508,34.229 19.505 C 34.125 19.502,33.950 19.610,33.838 19.744 M30.458 21.118 C 30.665 21.157,31.002 21.157,31.208 21.118 C 31.415 21.078,31.246 21.045,30.833 21.045 C 30.421 21.045,30.252 21.078,30.458 21.118 M45.792 25.284 C 45.998 25.324,46.335 25.324,46.542 25.284 C 46.748 25.245,46.579 25.212,46.167 25.212 C 45.754 25.212,45.585 25.245,45.792 25.284 M118.211 25.286 C 118.464 25.325,118.839 25.324,119.044 25.284 C 119.249 25.244,119.042 25.213,118.583 25.214 C 118.125 25.216,117.957 25.248,118.211 25.286 M209.875 25.282 C 210.035 25.323,210.298 25.323,210.458 25.282 C 210.619 25.240,210.487 25.205,210.167 25.205 C 209.846 25.205,209.715 25.240,209.875 25.282 M238.208 25.282 C 238.369 25.323,238.631 25.323,238.792 25.282 C 238.952 25.240,238.821 25.205,238.500 25.205 C 238.179 25.205,238.048 25.240,238.208 25.282 M287.211 25.286 C 287.464 25.325,287.839 25.324,288.044 25.284 C 288.249 25.244,288.042 25.213,287.583 25.214 C 287.125 25.216,286.957 25.248,287.211 25.286 M331.875 25.286 C 332.127 25.324,332.540 25.324,332.792 25.286 C 333.044 25.248,332.837 25.217,332.333 25.217 C 331.829 25.217,331.623 25.248,331.875 25.286 M376.708 25.282 C 376.869 25.323,377.131 25.323,377.292 25.282 C 377.452 25.240,377.321 25.205,377.000 25.205 C 376.679 25.205,376.548 25.240,376.708 25.282 M146.792 26.458 C 147.915 26.487,149.752 26.487,150.875 26.458 C 151.998 26.429,151.079 26.405,148.833 26.405 C 146.587 26.405,145.669 26.429,146.792 26.458 M175.833 26.457 L 179.832 26.506 179.875 47.378 L 179.919 68.250 179.918 47.333 L 179.917 26.417 175.875 26.412 L 171.833 26.408 175.833 26.457 M193.375 26.458 C 194.452 26.487,196.215 26.487,197.292 26.458 C 198.369 26.429,197.487 26.405,195.333 26.405 C 193.179 26.405,192.298 26.429,193.375 26.458 M268.708 26.458 C 269.785 26.487,271.548 26.487,272.625 26.458 C 273.702 26.429,272.821 26.405,270.667 26.405 C 268.512 26.405,267.631 26.429,268.708 26.458 M13.375 28.583 C 13.377 28.950,13.411 29.080,13.451 28.873 C 13.491 28.666,13.490 28.366,13.448 28.206 C 13.406 28.047,13.374 28.217,13.375 28.583 M363.410 30.708 L 362.583 31.583 363.458 30.756 C 364.271 29.988,364.410 29.833,364.285 29.833 C 364.259 29.833,363.865 30.227,363.410 30.708 M317.242 31.042 L 316.583 31.750 317.292 31.091 C 317.681 30.729,318.000 30.410,318.000 30.383 C 318.000 30.257,317.855 30.383,317.242 31.042 M15.712 31.333 C 15.712 31.746,15.745 31.915,15.784 31.708 C 15.824 31.502,15.824 31.165,15.784 30.958 C 15.745 30.752,15.712 30.921,15.712 31.333 M76.539 31.333 C 76.539 31.654,76.573 31.785,76.615 31.625 C 76.657 31.465,76.657 31.202,76.615 31.042 C 76.573 30.881,76.539 31.012,76.539 31.333 M29.375 31.948 C 29.535 31.990,29.798 31.990,29.958 31.948 C 30.119 31.906,29.988 31.872,29.667 31.872 C 29.346 31.872,29.215 31.906,29.375 31.948 M13.709 32.750 C 13.711 33.117,13.745 33.247,13.785 33.040 C 13.824 32.832,13.823 32.532,13.781 32.373 C 13.739 32.214,13.707 32.383,13.709 32.750 M77.872 33.000 C 77.872 33.321,77.906 33.452,77.948 33.292 C 77.990 33.131,77.990 32.869,77.948 32.708 C 77.906 32.548,77.872 32.679,77.872 33.000 M339.667 34.750 C 339.978 35.071,340.270 35.333,340.315 35.333 C 340.361 35.333,340.144 35.071,339.833 34.750 C 339.522 34.429,339.230 34.167,339.185 34.167 C 339.139 34.167,339.356 34.429,339.667 34.750 M76.205 35.333 C 76.205 35.654,76.240 35.785,76.282 35.625 C 76.323 35.465,76.323 35.202,76.282 35.042 C 76.240 34.881,76.205 35.012,76.205 35.333 M16.042 35.917 C 16.044 36.283,16.078 36.414,16.118 36.206 C 16.158 35.999,16.156 35.699,16.115 35.540 C 16.073 35.380,16.040 35.550,16.042 35.917 M203.324 36.292 L 202.750 36.917 203.375 36.342 C 203.957 35.808,204.077 35.667,203.949 35.667 C 203.922 35.667,203.640 35.948,203.324 36.292 M14.045 37.167 C 14.045 37.579,14.078 37.748,14.118 37.542 C 14.157 37.335,14.157 36.998,14.118 36.792 C 14.078 36.585,14.045 36.754,14.045 37.167 M77.542 37.250 C 77.544 37.617,77.578 37.747,77.618 37.540 C 77.658 37.332,77.656 37.032,77.615 36.873 C 77.573 36.714,77.540 36.883,77.542 37.250 M75.875 39.250 C 75.877 39.617,75.911 39.747,75.951 39.540 C 75.991 39.332,75.990 39.032,75.948 38.873 C 75.906 38.714,75.874 38.883,75.875 39.250 M133.246 53.417 C 133.246 61.575,133.267 64.888,133.292 60.779 C 133.316 56.670,133.316 49.995,133.292 45.946 C 133.267 41.896,133.246 45.258,133.246 53.417 M28.717 39.833 C 28.717 40.337,28.748 40.544,28.786 40.292 C 28.824 40.040,28.824 39.627,28.786 39.375 C 28.748 39.123,28.717 39.329,28.717 39.833 M63.879 39.833 C 63.879 40.246,63.911 40.415,63.951 40.208 C 63.991 40.002,63.991 39.665,63.951 39.458 C 63.911 39.252,63.879 39.421,63.879 39.833 M16.375 40.583 C 16.377 40.950,16.411 41.080,16.451 40.873 C 16.491 40.666,16.490 40.366,16.448 40.206 C 16.406 40.047,16.374 40.217,16.375 40.583 M14.375 41.417 C 14.377 41.783,14.411 41.914,14.451 41.706 C 14.491 41.499,14.490 41.199,14.448 41.040 C 14.406 40.880,14.374 41.050,14.375 41.417 M77.192 42.448 C 77.178 43.108,77.223 43.682,77.292 43.724 C 77.360 43.767,77.395 43.415,77.369 42.943 C 77.284 41.410,77.217 41.224,77.192 42.448 M4.048 43.083 C 4.049 43.542,4.081 43.709,4.120 43.456 C 4.158 43.203,4.157 42.828,4.117 42.623 C 4.078 42.418,4.046 42.625,4.048 43.083 M63.714 43.250 C 63.716 43.708,63.748 43.876,63.786 43.623 C 63.825 43.369,63.824 42.994,63.784 42.789 C 63.744 42.584,63.713 42.792,63.714 43.250 M75.545 43.333 C 75.545 43.746,75.578 43.915,75.618 43.708 C 75.657 43.502,75.657 43.165,75.618 42.958 C 75.578 42.752,75.545 42.921,75.545 43.333 M227.043 43.167 C 227.103 43.386,228.474 43.417,238.097 43.419 L 249.083 43.420 238.176 43.376 C 229.715 43.341,227.235 43.284,227.121 43.124 C 227.013 42.971,226.993 42.983,227.043 43.167 M28.888 44.250 C 28.889 44.892,28.919 45.134,28.955 44.788 C 28.991 44.442,28.990 43.917,28.954 43.621 C 28.917 43.325,28.887 43.608,28.888 44.250 M370.958 43.458 C 374.006 43.484,378.994 43.484,382.042 43.458 C 385.090 43.433,382.596 43.412,376.500 43.412 C 370.404 43.412,367.910 43.433,370.958 43.458 M45.714 44.417 C 45.716 44.875,45.748 45.043,45.786 44.789 C 45.825 44.536,45.824 44.161,45.784 43.956 C 45.744 43.751,45.713 43.958,45.714 44.417 M61.718 44.917 C 61.719 45.467,61.750 45.672,61.787 45.372 C 61.825 45.072,61.824 44.622,61.786 44.372 C 61.748 44.122,61.717 44.367,61.718 44.917 M357.375 45.583 C 357.377 45.950,357.411 46.080,357.451 45.873 C 357.491 45.666,357.490 45.366,357.448 45.206 C 357.406 45.047,357.374 45.217,357.375 45.583 M311.372 45.667 C 311.372 45.987,311.406 46.119,311.448 45.958 C 311.490 45.798,311.490 45.535,311.448 45.375 C 311.406 45.215,311.372 45.346,311.372 45.667 M218.881 47.250 C 218.882 47.708,218.915 47.876,218.953 47.623 C 218.991 47.369,218.990 46.994,218.951 46.789 C 218.911 46.584,218.880 46.792,218.881 47.250 M4.372 47.333 C 4.372 47.654,4.406 47.785,4.448 47.625 C 4.490 47.465,4.490 47.202,4.448 47.042 C 4.406 46.881,4.372 47.012,4.372 47.333 M29.056 48.667 C 29.056 49.354,29.085 49.635,29.121 49.292 C 29.157 48.948,29.157 48.385,29.121 48.042 C 29.085 47.698,29.056 47.979,29.056 48.667 M14.548 48.583 C 14.549 49.042,14.581 49.209,14.620 48.956 C 14.658 48.703,14.657 48.328,14.617 48.123 C 14.578 47.918,14.546 48.125,14.548 48.583 M63.392 49.583 C 63.392 50.408,63.420 50.767,63.455 50.380 C 63.490 49.993,63.490 49.318,63.456 48.880 C 63.422 48.442,63.393 48.758,63.392 49.583 M311.375 48.917 C 311.377 49.283,311.411 49.414,311.451 49.206 C 311.491 48.999,311.490 48.699,311.448 48.540 C 311.406 48.380,311.374 48.550,311.375 48.917 M357.372 48.833 C 357.372 49.154,357.406 49.285,357.448 49.125 C 357.490 48.965,357.490 48.702,357.448 48.542 C 357.406 48.381,357.372 48.512,357.372 48.833 M16.542 49.583 C 16.544 49.950,16.578 50.080,16.618 49.873 C 16.658 49.666,16.656 49.366,16.615 49.206 C 16.573 49.047,16.540 49.217,16.542 49.583 M76.205 49.667 C 76.205 49.987,76.240 50.119,76.282 49.958 C 76.323 49.798,76.323 49.535,76.282 49.375 C 76.240 49.215,76.205 49.346,76.205 49.667 M30.872 50.667 C 30.872 50.987,30.906 51.119,30.948 50.958 C 30.990 50.798,30.990 50.535,30.948 50.375 C 30.906 50.215,30.872 50.346,30.872 50.667 M4.705 51.333 C 4.705 51.654,4.740 51.785,4.782 51.625 C 4.823 51.465,4.823 51.202,4.782 51.042 C 4.740 50.881,4.705 51.012,4.705 51.333 M47.220 51.833 C 47.220 52.429,47.250 52.673,47.287 52.375 C 47.324 52.077,47.324 51.590,47.287 51.292 C 47.250 50.994,47.220 51.237,47.220 51.833 M14.718 52.583 C 14.719 53.133,14.750 53.338,14.787 53.039 C 14.825 52.739,14.824 52.289,14.786 52.039 C 14.748 51.788,14.717 52.033,14.718 52.583 M16.718 53.750 C 16.719 54.300,16.750 54.505,16.787 54.205 C 16.825 53.906,16.824 53.456,16.786 53.205 C 16.748 52.955,16.717 53.200,16.718 53.750 M75.872 53.333 C 75.872 53.654,75.906 53.785,75.948 53.625 C 75.990 53.465,75.990 53.202,75.948 53.042 C 75.906 52.881,75.872 53.012,75.872 53.333 M152.872 54.333 C 152.872 54.654,152.906 54.785,152.948 54.625 C 152.990 54.465,152.990 54.202,152.948 54.042 C 152.906 53.881,152.872 54.012,152.872 54.333 M75.539 57.000 C 75.539 57.321,75.573 57.452,75.615 57.292 C 75.657 57.131,75.657 56.869,75.615 56.708 C 75.573 56.548,75.539 56.679,75.539 57.000 M16.879 57.333 C 16.879 57.746,16.911 57.915,16.951 57.708 C 16.991 57.502,16.991 57.165,16.951 56.958 C 16.911 56.752,16.879 56.921,16.879 57.333 M45.548 57.583 C 45.549 58.042,45.581 58.209,45.620 57.956 C 45.658 57.703,45.657 57.328,45.617 57.123 C 45.578 56.918,45.546 57.125,45.548 57.583 M60.723 58.167 C 60.723 58.854,60.752 59.135,60.788 58.792 C 60.824 58.448,60.824 57.885,60.788 57.542 C 60.752 57.198,60.723 57.479,60.723 58.167 M15.042 57.917 C 15.044 58.283,15.078 58.414,15.118 58.206 C 15.158 57.999,15.156 57.699,15.115 57.540 C 15.073 57.380,15.040 57.550,15.042 57.917 M62.539 59.167 C 62.539 59.487,62.573 59.619,62.615 59.458 C 62.657 59.298,62.657 59.035,62.615 58.875 C 62.573 58.715,62.539 58.846,62.539 59.167 M73.872 59.167 C 73.872 59.487,73.906 59.619,73.948 59.458 C 73.990 59.298,73.990 59.035,73.948 58.875 C 73.906 58.715,73.872 58.846,73.872 59.167 M369.333 59.583 C 369.644 59.904,369.936 60.167,369.982 60.167 C 370.028 60.167,369.811 59.904,369.500 59.583 C 369.189 59.262,368.897 59.000,368.851 59.000 C 368.805 59.000,369.022 59.262,369.333 59.583 M384.740 59.875 L 384.250 60.417 384.792 59.927 C 385.297 59.471,385.410 59.333,385.281 59.333 C 385.252 59.333,385.009 59.577,384.740 59.875 M75.214 60.917 C 75.216 61.375,75.248 61.543,75.286 61.289 C 75.325 61.036,75.324 60.661,75.284 60.456 C 75.244 60.251,75.213 60.458,75.214 60.917 M5.372 61.167 C 5.372 61.487,5.406 61.619,5.448 61.458 C 5.490 61.298,5.490 61.035,5.448 60.875 C 5.406 60.715,5.372 60.846,5.372 61.167 M17.048 61.417 C 17.049 61.875,17.081 62.043,17.120 61.789 C 17.158 61.536,17.157 61.161,17.117 60.956 C 17.078 60.751,17.046 60.958,17.048 61.417 M60.539 61.833 C 60.539 62.154,60.573 62.285,60.615 62.125 C 60.657 61.965,60.657 61.702,60.615 61.542 C 60.573 61.381,60.539 61.512,60.539 61.833 M62.381 62.083 C 62.382 62.542,62.415 62.709,62.453 62.456 C 62.491 62.203,62.490 61.828,62.451 61.623 C 62.411 61.418,62.380 61.625,62.381 62.083 M31.062 65.333 C 31.062 66.296,31.089 66.690,31.123 66.208 C 31.157 65.727,31.157 64.940,31.123 64.458 C 31.089 63.977,31.062 64.371,31.062 65.333 M345.658 64.292 L 345.083 64.917 345.708 64.342 C 346.290 63.808,346.410 63.667,346.283 63.667 C 346.255 63.667,345.974 63.948,345.658 64.292 M390.491 64.292 L 389.917 64.917 390.542 64.342 C 391.123 63.808,391.243 63.667,391.116 63.667 C 391.088 63.667,390.807 63.948,390.491 64.292 M60.385 65.250 C 60.386 65.800,60.417 66.005,60.454 65.705 C 60.491 65.406,60.490 64.956,60.452 64.705 C 60.414 64.455,60.384 64.700,60.385 65.250 M84.539 65.333 C 84.539 65.654,84.573 65.785,84.615 65.625 C 84.657 65.465,84.657 65.202,84.615 65.042 C 84.573 64.881,84.539 65.012,84.539 65.333 M45.236 68.000 C 45.236 69.696,45.261 70.390,45.291 69.542 C 45.321 68.694,45.321 67.306,45.291 66.458 C 45.261 65.610,45.236 66.304,45.236 68.000 M47.050 65.833 C 47.050 66.337,47.081 66.544,47.119 66.292 C 47.158 66.040,47.158 65.627,47.119 65.375 C 47.081 65.123,47.050 65.329,47.050 65.833 M62.205 65.500 C 62.205 65.821,62.240 65.952,62.282 65.792 C 62.323 65.631,62.323 65.369,62.282 65.208 C 62.240 65.048,62.205 65.179,62.205 65.500 M148.333 65.583 C 148.644 65.904,148.936 66.167,148.982 66.167 C 149.028 66.167,148.811 65.904,148.500 65.583 C 148.189 65.262,147.897 65.000,147.851 65.000 C 147.805 65.000,148.022 65.262,148.333 65.583 M15.712 66.500 C 15.712 66.912,15.745 67.081,15.784 66.875 C 15.824 66.669,15.824 66.331,15.784 66.125 C 15.745 65.919,15.712 66.087,15.712 66.500 M62.034 68.938 C 62.006 70.056,62.051 70.332,62.292 70.521 C 62.548 70.722,62.559 70.719,62.383 70.492 C 62.272 70.350,62.156 69.638,62.124 68.909 L 62.067 67.583 62.034 68.938 M6.039 68.500 C 6.039 68.821,6.073 68.952,6.115 68.792 C 6.157 68.631,6.157 68.369,6.115 68.208 C 6.073 68.048,6.039 68.179,6.039 68.500 M60.205 68.667 C 60.205 68.987,60.240 69.119,60.282 68.958 C 60.323 68.798,60.323 68.535,60.282 68.375 C 60.240 68.215,60.205 68.346,60.205 68.667 M46.885 69.917 C 46.886 70.467,46.917 70.672,46.954 70.372 C 46.991 70.072,46.990 69.622,46.952 69.372 C 46.914 69.122,46.884 69.367,46.885 69.917 M74.542 69.750 C 74.544 70.117,74.578 70.247,74.618 70.040 C 74.658 69.832,74.656 69.532,74.615 69.373 C 74.573 69.214,74.540 69.383,74.542 69.750 M17.712 71.000 C 17.712 71.412,17.745 71.581,17.784 71.375 C 17.824 71.169,17.824 70.831,17.784 70.625 C 17.745 70.419,17.712 70.587,17.712 71.000 M16.045 71.167 C 16.045 71.579,16.078 71.748,16.118 71.542 C 16.157 71.335,16.157 70.998,16.118 70.792 C 16.078 70.585,16.045 70.754,16.045 71.167 M72.872 71.833 C 72.872 72.154,72.906 72.285,72.948 72.125 C 72.990 71.965,72.990 71.702,72.948 71.542 C 72.906 71.381,72.872 71.512,72.872 71.833 M28.000 72.052 C 28.000 72.081,28.244 72.325,28.542 72.594 L 29.083 73.083 28.594 72.542 C 28.138 72.037,28.000 71.923,28.000 72.052 M74.209 73.917 C 74.211 74.283,74.245 74.414,74.285 74.206 C 74.324 73.999,74.323 73.699,74.281 73.540 C 74.239 73.380,74.207 73.550,74.209 73.917 M46.734 76.667 C 46.734 78.087,46.759 78.669,46.791 77.958 C 46.822 77.248,46.822 76.085,46.791 75.375 C 46.759 74.665,46.734 75.246,46.734 76.667 M45.062 76.583 C 45.063 77.592,45.090 77.983,45.123 77.452 C 45.157 76.922,45.156 76.097,45.123 75.619 C 45.089 75.141,45.062 75.575,45.062 76.583 M61.709 75.417 C 61.711 75.783,61.745 75.914,61.785 75.706 C 61.824 75.499,61.823 75.199,61.781 75.040 C 61.739 74.880,61.707 75.050,61.709 75.417 M16.372 75.667 C 16.372 75.987,16.406 76.119,16.448 75.958 C 16.490 75.798,16.490 75.535,16.448 75.375 C 16.406 75.215,16.372 75.346,16.372 75.667 M31.387 76.667 C 31.387 77.262,31.417 77.506,31.454 77.208 C 31.491 76.910,31.491 76.423,31.454 76.125 C 31.417 75.827,31.387 76.071,31.387 76.667 M18.045 77.000 C 18.045 77.412,18.078 77.581,18.118 77.375 C 18.157 77.169,18.157 76.831,18.118 76.625 C 18.078 76.419,18.045 76.587,18.045 77.000 M59.875 78.250 C 59.877 78.617,59.911 78.747,59.951 78.540 C 59.991 78.332,59.990 78.032,59.948 77.873 C 59.906 77.714,59.874 77.883,59.875 78.250 M31.573 83.667 C 31.573 86.096,31.596 87.090,31.625 85.875 C 31.653 84.660,31.653 82.673,31.625 81.458 C 31.596 80.244,31.573 81.237,31.573 83.667 M61.375 80.583 C 61.377 80.950,61.411 81.080,61.451 80.873 C 61.491 80.666,61.490 80.366,61.448 80.206 C 61.406 80.047,61.374 80.217,61.375 80.583 M29.555 81.250 C 29.555 81.892,29.586 82.134,29.622 81.788 C 29.658 81.442,29.657 80.917,29.620 80.621 C 29.583 80.325,29.554 80.608,29.555 81.250 M59.721 82.250 C 59.722 82.892,59.752 83.134,59.788 82.788 C 59.824 82.442,59.824 81.917,59.787 81.621 C 59.750 81.325,59.721 81.608,59.721 82.250 M61.045 85.667 C 61.045 86.079,61.078 86.248,61.118 86.042 C 61.157 85.835,61.157 85.498,61.118 85.292 C 61.078 85.085,61.045 85.254,61.045 85.667 M45.053 86.667 C 45.053 87.263,45.084 87.506,45.121 87.208 C 45.158 86.910,45.158 86.423,45.121 86.125 C 45.084 85.827,45.053 86.071,45.053 86.667 M59.542 86.250 C 59.544 86.617,59.578 86.747,59.618 86.540 C 59.658 86.332,59.656 86.032,59.615 85.873 C 59.573 85.714,59.540 85.883,59.542 86.250 M47.214 87.083 C 47.216 87.542,47.248 87.709,47.286 87.456 C 47.325 87.203,47.324 86.828,47.284 86.623 C 47.244 86.418,47.213 86.625,47.214 87.083 " stroke="none" fill="#9ec5d5" fill-rule="evenodd"></path><path id="path4" d="M98.248 39.333 C 98.248 55.237,98.268 61.744,98.292 53.792 C 98.316 45.840,98.316 32.827,98.292 24.875 C 98.268 16.923,98.248 23.429,98.248 39.333 M144.913 41.083 C 144.913 49.150,144.933 52.474,144.958 48.471 C 144.983 44.467,144.983 37.867,144.958 33.804 C 144.933 29.741,144.913 33.017,144.913 41.083 M171.913 39.750 C 171.913 47.083,171.933 50.059,171.958 46.363 C 171.983 42.666,171.983 36.666,171.958 33.029 C 171.933 29.392,171.913 32.417,171.913 39.750 M191.581 47.333 C 191.581 58.837,191.601 63.544,191.625 57.792 C 191.649 52.040,191.649 42.627,191.625 36.875 C 191.601 31.123,191.581 35.829,191.581 47.333 M274.370 28.792 C 274.336 30.995,274.431 31.517,274.766 30.974 C 274.839 30.857,274.812 30.827,274.697 30.898 C 274.562 30.981,274.495 30.366,274.458 28.715 L 274.406 26.417 274.370 28.792 M298.160 29.042 C 298.850 29.778,299.000 29.910,299.000 29.785 C 299.000 29.758,298.644 29.402,298.208 28.993 L 297.417 28.250 298.160 29.042 M129.493 29.208 C 129.902 29.644,130.258 30.000,130.285 30.000 C 130.410 30.000,130.278 29.850,129.542 29.160 L 128.750 28.417 129.493 29.208 M275.906 29.708 L 275.417 30.250 275.958 29.760 C 276.463 29.304,276.577 29.167,276.448 29.167 C 276.419 29.167,276.175 29.410,275.906 29.708 M251.160 30.208 C 251.850 30.944,252.000 31.077,252.000 30.951 C 252.000 30.925,251.644 30.568,251.208 30.160 L 250.417 29.417 251.160 30.208 M238.208 31.615 C 238.369 31.657,238.631 31.657,238.792 31.615 C 238.952 31.573,238.821 31.539,238.500 31.539 C 238.179 31.539,238.048 31.573,238.208 31.615 M376.708 31.615 C 376.869 31.657,377.131 31.657,377.292 31.615 C 377.452 31.573,377.321 31.539,377.000 31.539 C 376.679 31.539,376.548 31.573,376.708 31.615 M115.877 32.453 C 116.131 32.491,116.506 32.490,116.711 32.451 C 116.916 32.411,116.708 32.380,116.250 32.381 C 115.792 32.382,115.624 32.415,115.877 32.453 M117.458 32.451 C 117.665 32.491,118.002 32.491,118.208 32.451 C 118.415 32.411,118.246 32.379,117.833 32.379 C 117.421 32.379,117.252 32.411,117.458 32.451 M284.544 32.453 C 284.797 32.491,285.172 32.490,285.377 32.451 C 285.582 32.411,285.375 32.380,284.917 32.381 C 284.458 32.382,284.291 32.415,284.544 32.453 M286.292 32.451 C 286.498 32.491,286.835 32.491,287.042 32.451 C 287.248 32.411,287.079 32.379,286.667 32.379 C 286.254 32.379,286.085 32.411,286.292 32.451 M210.296 33.122 C 210.688 33.157,211.288 33.157,211.629 33.121 C 211.971 33.085,211.650 33.057,210.917 33.057 C 210.183 33.058,209.904 33.087,210.296 33.122 M323.575 35.375 L 322.917 36.083 323.625 35.425 C 324.015 35.062,324.333 34.743,324.333 34.716 C 324.333 34.590,324.188 34.716,323.575 35.375 M301.714 39.083 C 301.716 39.542,301.748 39.709,301.786 39.456 C 301.825 39.203,301.824 38.828,301.784 38.623 C 301.744 38.418,301.713 38.625,301.714 39.083 M125.246 53.917 C 125.246 61.800,125.267 65.001,125.292 61.029 C 125.317 57.058,125.317 50.608,125.292 46.696 C 125.267 42.784,125.246 46.033,125.246 53.917 M344.551 40.625 C 345.633 40.654,347.358 40.654,348.384 40.624 C 349.410 40.595,348.525 40.571,346.417 40.571 C 344.308 40.572,343.469 40.595,344.551 40.625 M274.746 55.167 C 274.746 62.362,274.767 65.306,274.792 61.708 C 274.817 58.110,274.817 52.223,274.792 48.625 C 274.767 45.027,274.746 47.971,274.746 55.167 M61.717 43.167 C 61.717 43.671,61.748 43.877,61.786 43.625 C 61.824 43.373,61.824 42.960,61.786 42.708 C 61.748 42.456,61.717 42.662,61.717 43.167 M47.399 45.250 C 47.399 46.533,47.426 47.036,47.457 46.368 C 47.489 45.699,47.489 44.649,47.457 44.034 C 47.425 43.420,47.399 43.967,47.399 45.250 M257.212 46.167 C 257.212 46.579,257.245 46.748,257.284 46.542 C 257.324 46.335,257.324 45.998,257.284 45.792 C 257.245 45.585,257.212 45.754,257.212 46.167 M311.388 47.250 C 311.389 47.892,311.419 48.134,311.455 47.788 C 311.491 47.442,311.490 46.917,311.454 46.621 C 311.417 46.325,311.387 46.608,311.388 47.250 M319.387 47.167 C 319.387 47.762,319.417 48.006,319.454 47.708 C 319.491 47.410,319.491 46.923,319.454 46.625 C 319.417 46.327,319.387 46.571,319.387 47.167 M357.388 47.250 C 357.389 47.892,357.419 48.134,357.455 47.788 C 357.491 47.442,357.490 46.917,357.454 46.621 C 357.417 46.325,357.387 46.608,357.388 47.250 M61.545 48.333 C 61.545 48.746,61.578 48.915,61.618 48.708 C 61.657 48.502,61.657 48.165,61.618 47.958 C 61.578 47.752,61.545 47.921,61.545 48.333 M226.942 49.292 C 226.872 49.405,237.497 49.404,251.917 49.289 C 254.942 49.265,250.577 49.228,242.218 49.206 C 233.859 49.184,226.985 49.223,226.942 49.292 M372.971 49.292 C 377.217 49.316,384.117 49.316,388.304 49.292 C 392.491 49.267,389.017 49.247,380.583 49.247 C 372.150 49.247,368.724 49.267,372.971 49.292 M365.372 50.000 C 365.372 50.321,365.406 50.452,365.448 50.292 C 365.490 50.131,365.490 49.869,365.448 49.708 C 365.406 49.548,365.372 49.679,365.372 50.000 M343.276 52.625 C 343.233 52.694,344.854 52.728,346.877 52.702 C 349.738 52.665,350.586 52.702,350.692 52.869 C 350.793 53.027,350.829 53.007,350.831 52.792 C 350.833 52.484,343.464 52.321,343.276 52.625 M47.230 54.667 C 47.230 55.721,47.257 56.152,47.290 55.625 C 47.323 55.098,47.323 54.235,47.290 53.708 C 47.257 53.181,47.230 53.612,47.230 54.667 M45.553 55.833 C 45.553 56.429,45.584 56.673,45.621 56.375 C 45.658 56.077,45.658 55.590,45.621 55.292 C 45.584 54.994,45.553 55.237,45.553 55.833 M249.109 55.458 C 249.067 55.527,250.787 55.583,252.933 55.583 C 255.078 55.583,256.833 55.527,256.833 55.458 C 256.833 55.390,255.113 55.333,253.010 55.333 C 250.907 55.333,249.152 55.390,249.109 55.458 M387.609 55.458 C 387.566 55.527,388.668 55.564,390.057 55.540 C 394.781 55.460,395.258 55.401,391.468 55.367 C 389.388 55.349,387.651 55.390,387.609 55.458 M230.833 59.583 C 231.144 59.904,231.436 60.167,231.482 60.167 C 231.528 60.167,231.311 59.904,231.000 59.583 C 230.689 59.262,230.397 59.000,230.351 59.000 C 230.305 59.000,230.522 59.262,230.833 59.583 M225.083 63.833 C 225.535 64.292,225.942 64.667,225.987 64.667 C 226.033 64.667,225.701 64.292,225.250 63.833 C 224.799 63.375,224.392 63.000,224.346 63.000 C 224.300 63.000,224.632 63.375,225.083 63.833 M171.244 64.375 L 170.417 65.250 171.287 64.428 L 172.157 63.606 172.209 65.928 L 172.260 68.250 172.297 65.875 C 172.338 63.174,172.356 63.199,171.244 64.375 M251.991 64.292 L 251.417 64.917 252.042 64.342 C 252.385 64.026,252.667 63.745,252.667 63.717 C 252.667 63.590,252.526 63.710,251.991 64.292 " stroke="none" fill="#7e7e7e" fill-rule="evenodd"></path></g></svg>